<?xml version="1.0" standalone="no"?>
<!DOCTYPE svg PUBLIC "-//W3C//DTD SVG 20010904//EN"
 "http://www.w3.org/TR/2001/REC-SVG-20010904/DTD/svg10.dtd">
<svg version="1.0" xmlns="http://www.w3.org/2000/svg"
 width="100.000000pt" height="100.000000pt" viewBox="0 0 100.000000 100.000000"
 preserveAspectRatio="xMidYMid meet">
<metadata>
Created by potrace 1.16, written by Peter Selinger 2001-2019
</metadata>
<g transform="translate(0.000000,100.000000) scale(0.100000,-0.100000)"
fill="#000000" stroke="none">
<path d="M327 517 c-97 -166 -179 -311 -183 -321 -6 -15 -2 -17 31 -14 l38 3
132 226 c72 125 137 236 145 248 14 20 22 8 159 -229 l144 -250 39 0 39 0 -32
58 c-18 31 -101 175 -185 320 l-152 263 -175 -304z"/>
<path d="M403 416 c-51 -90 -93 -167 -93 -170 0 -3 58 -6 130 -6 l129 0 -20
35 c-20 33 -24 35 -74 35 l-54 0 60 104 c60 104 60 104 44 135 -8 17 -19 31
-23 31 -4 0 -49 -74 -99 -164z"/>
<path d="M537 419 c-33 -59 -33 -64 -6 -66 29 -2 34 -9 83 -95 39 -68 44 -73
79 -76 20 -2 37 0 37 4 0 10 -151 273 -159 278 -3 2 -19 -18 -34 -45z"/>
</g>
</svg>
